# xmcd CD database file
#
# Track frame offsets:
#	150
#	12002
#	21930
#	34387
#	48357
#	61612
#	74997
#	90375
#	100762
#	115457
#	129782
#	142815
#	157507
#
# Disc length: 2258 seconds
#
# Revision: 0
# Processed by: cddbd v1.5.2PL0 Copyright (c) Steve Scherf et al.
# Submitted via: CDex 1.51
#
DISCID=9c08d00d
DTITLE=Jim Lauderdale - Country Super Hits Vol 1
DYEAR=2006
DGENRE=Country
TTITLE0=Honky Tonk Mood Again
TTITLE1=Playing On My Heart Strings
TTITLE2=Two More Wishes
TTITLE3=Cautious
TTITLE4=If You've Never Seen Her Smile
TTITLE5=Right Where You Want Me
TTITLE6=Are You Okay
TTITLE7=Single Standard Time
TTITLE8=I Met Jesus in a Bar
TTITLE9=That's Why We're Here
TTITLE10=Change
TTITLE11=You Can't Stop Her
TTITLE12=She's Got Some Magic Going On
EXTD=YEAR: 2006
EXTT0=
EXTT1=
EXTT2=
EXTT3=
EXTT4=
EXTT5=
EXTT6=
EXTT7=
EXTT8=
EXTT9=
EXTT10=
EXTT11=
EXTT12=
PLAYORDER=
